<?xml version="1.0" encoding="UTF-8" standalone="no"?>
<svg
   xmlns:dc="http://purl.org/dc/elements/1.1/"
   xmlns:cc="http://creativecommons.org/ns#"
   xmlns:rdf="http://www.w3.org/1999/02/22-rdf-syntax-ns#"
   xmlns:svg="http://www.w3.org/2000/svg"
   xmlns="http://www.w3.org/2000/svg"
   xmlns:sodipodi="http://sodipodi.sourceforge.net/DTD/sodipodi-0.dtd"
   xmlns:inkscape="http://www.inkscape.org/namespaces/inkscape"
   viewBox="0 0 16 16"
   version="1.1"
   id="svg6"
   sodipodi:docname="hourglass.svg"
   width="16"
   height="16"
   inkscape:version="0.92.5 (2060ec1f9f, 2020-04-08)">
  <metadata
     id="metadata12">
    <rdf:RDF>
      <cc:Work
         rdf:about="">
        <dc:format>image/svg+xml</dc:format>
        <dc:type
           rdf:resource="http://purl.org/dc/dcmitype/StillImage" />
        <dc:title></dc:title>
      </cc:Work>
    </rdf:RDF>
  </metadata>
  <defs
     id="defs10" />
  <sodipodi:namedview
     pagecolor="#ffffff"
     bordercolor="#666666"
     borderopacity="1"
     objecttolerance="10"
     gridtolerance="10"
     guidetolerance="10"
     inkscape:pageopacity="0"
     inkscape:pageshadow="2"
     inkscape:window-width="1920"
     inkscape:window-height="1030"
     id="namedview8"
     showgrid="false"
     fit-margin-top="0"
     fit-margin-left="0"
     fit-margin-right="0"
     fit-margin-bottom="0"
     inkscape:zoom="20.85965"
     inkscape:cx="1.4585326"
     inkscape:cy="-2.4425201"
     inkscape:window-x="0"
     inkscape:window-y="27"
     inkscape:window-maximized="1"
     inkscape:current-layer="svg6" />
  <g
     class=""
     transform="matrix(0.03329842,0,0,0.03329842,-0.44859574,-0.53480916)"
     id="g4">
    <path
       d="m 92.656,19.188 v 41.5 h 331.72 v -41.5 H 92.655 Z M 119.5,79.374 V 433.53 h 22.28 V 79.376 H 119.5 Z m 46.594,0 c 3.212,43.324 13.312,82.022 27.78,110.906 17.685,35.304 40.845,54.75 64.064,54.75 23.218,0 46.346,-19.446 64.03,-54.75 14.47,-28.883 24.57,-67.58 27.782,-110.905 H 166.094 Z m 209.156,0 V 433.53 h 22.28 V 79.376 h -22.28 z m -117.313,185.22 c -23.218,0 -46.378,19.415 -64.062,54.717 -14.835,29.614 -25.098,69.562 -28.03,114.22 H 350 c -2.933,-44.658 -13.197,-84.606 -28.03,-114.22 -17.686,-35.302 -40.814,-54.718 -64.033,-54.718 z M 92.657,452.218 v 41.467 H 424.375 V 452.22 H 92.655 Z"
       id="path2"
       inkscape:connector-curvature="0"
       style="fill:#ffe171;fill-opacity:1" />
  </g>
</svg>
