<?xml version="1.0" encoding="UTF-8" standalone="no"?>
<svg
   xmlns:dc="http://purl.org/dc/elements/1.1/"
   xmlns:cc="http://creativecommons.org/ns#"
   xmlns:rdf="http://www.w3.org/1999/02/22-rdf-syntax-ns#"
   xmlns:svg="http://www.w3.org/2000/svg"
   xmlns="http://www.w3.org/2000/svg"
   xmlns:sodipodi="http://sodipodi.sourceforge.net/DTD/sodipodi-0.dtd"
   xmlns:inkscape="http://www.inkscape.org/namespaces/inkscape"
   viewBox="0 0 16 16"
   version="1.1"
   id="svg6"
   sodipodi:docname="notebook.svg"
   width="16"
   height="16"
   inkscape:version="0.92.5 (2060ec1f9f, 2020-04-08)">
  <metadata
     id="metadata12">
    <rdf:RDF>
      <cc:Work
         rdf:about="">
        <dc:format>image/svg+xml</dc:format>
        <dc:type
           rdf:resource="http://purl.org/dc/dcmitype/StillImage" />
        <dc:title></dc:title>
      </cc:Work>
    </rdf:RDF>
  </metadata>
  <defs
     id="defs10" />
  <sodipodi:namedview
     pagecolor="#ffffff"
     bordercolor="#666666"
     borderopacity="1"
     objecttolerance="10"
     gridtolerance="10"
     guidetolerance="10"
     inkscape:pageopacity="0"
     inkscape:pageshadow="2"
     inkscape:window-width="1920"
     inkscape:window-height="1030"
     id="namedview8"
     showgrid="false"
     inkscape:zoom="28.963094"
     inkscape:cx="7.2732563"
     inkscape:cy="3.5357242"
     inkscape:window-x="0"
     inkscape:window-y="27"
     inkscape:window-maximized="1"
     inkscape:current-layer="svg6" />
  <path
     style="fill:#ffe171;fill-opacity:1;stroke-width:0.03278118"
     inkscape:connector-curvature="0"
     id="path2"
     d="m 3.8496349,0.27357827 c -0.4786053,0.003 -0.9211512,0.32781 -1.0467031,0.81363003 -0.07638,0.29929 -0.01803,0.60318 0.1353863,0.84707 -0.2514317,0.13965 -0.4487744,0.37796 -0.5254824,0.67726 -0.076052,0.29929 -0.018357,0.60088 0.1344029,0.84673 a 1.0715184,1.0715184 0 0 0 -0.5231877,0.6753 c -0.076708,0.29831 -0.017702,0.60317 0.1370254,0.84575 -0.2530707,0.14096 -0.4507413,0.37699 -0.5274492,0.67857 -0.07638,0.29831 -0.017702,0.60318 0.1373531,0.84576 -0.2530707,0.14096 -0.4507412,0.37698 -0.5274492,0.67857 -0.076708,0.29831 -0.017702,0.60317 0.1370254,0.84575 -0.2530707,0.14096 -0.45074119,0.37698 -0.52712139,0.67857 -0.076708,0.29831 -0.017702,0.60318 0.1370253,0.84576 -0.2530707,0.14096 -0.45074119,0.37698 -0.52744915,0.6785707 -0.0770358,0.30158 -0.0167184,0.60645 0.14095907,0.85231 a 1.0789925,1.0789925 0 0 0 -0.53367761,0.68185 c -0.14685968,0.57367 0.20488238,1.16701 0.77986429,1.31452 l 0.00328,-0.007 1.03949119,0.26881 -0.048188,0.18685 8.5742459,2.19634 1.386644,-5.41545 -0.734299,0.69496 -2.8781876,0.8687 0.5081083,-1.3932 -4.9729072,-1.2718707 0.1442372,-0.57039 5.0319111,1.2883 0.3179775,-0.87526 0.5015524,-0.47204 -5.4744575,-1.40304 0.1442372,-0.57039 5.8350506,1.49482 1.298135,-1.22602 -6.756202,-1.73084 0.1442372,-0.5704 7.1102378,1.81936 -0.0033,0.0131 1.032607,-0.97688 0.599896,-2.34057 L 5.0789071,0.88978827 4.9215574,1.5014783 C 4.9936764,0.96649827 4.6560299,0.44363827 4.1184185,0.30693827 c -0.088509,-0.023 -0.1802965,-0.0341 -0.2688056,-0.0338 z m 0.00983,0.58974 c 0.039337,0 0.078675,0.006 0.1147341,0.0157 0.2655276,0.0685 0.4228773,0.33208003 0.3540368,0.59891003 l 0.5638406,0.14424 -0.360593,1.40336 c 0.072119,-0.53597 -0.2688057,-1.05752 -0.8031389,-1.19422 l -0.019669,-0.005 c -0.2556929,-0.0767 -0.3999301,-0.33272 -0.3343678,-0.59235 0.055728,-0.21668 0.2393027,-0.36059003 0.4491022,-0.37043003 h 0.036059 z M 3.4693689,2.3879683 c 0.029503,0 0.062284,0.005 0.095065,0.0118 l 0.019669,0.005 c 0.2655276,0.0682 0.4228772,0.33175 0.3540367,0.59793 l 0.5638407,0.14423 -0.3605929,1.40959 c 0.078675,-0.53761 -0.2622495,-1.06866 -0.7998608,-1.20306 -0.022947,-0.007 -0.042616,-0.0131 -0.062284,-0.0164 -0.2294682,-0.0885 -0.3573148,-0.33109 -0.2950306,-0.5776 0.055728,-0.22848 0.2589713,-0.37534 0.4851615,-0.3701 z m 1.9635969,0.15046 7.1135162,1.82461 -0.144237,0.57039 -7.1135163,-1.82264 z m -2.389748,1.37223 h 0.042616 c 0.016391,0 0.029503,0 0.045894,0.003 0.019669,0.007 0.039337,0.01 0.059006,0.0164 l 0.00328,-0.007 c 0.265525,0.0688 0.4228747,0.33109 0.3540342,0.59989 l 0.5638363,0.14424 -0.360593,1.40959 c 0.075397,-0.53433 -0.2655275,-1.06211 -0.7998608,-1.19979 -0.26815,-0.0688 -0.4241884,-0.33109 -0.3556758,-0.5999 0.0554,-0.21635 0.2376636,-0.35731 0.4474631,-0.36714 z m 11.7586092,0.67857 -0.334368,0.31469 1.035886,1.09817 0.334368,-0.31469 z m -0.763801,0.72118 -4.1435413,3.91735 1.0326073,1.0981707 4.146819,-3.9173507 z m -11.3826095,0.12129 c 0.048516,0 0.098344,0.003 0.1484987,0.0164 0.2655276,0.0688 0.4228772,0.33109 0.3540368,0.5999 l 0.5638363,0.14424 -0.360593,1.40959 c 0.075397,-0.53762 -0.2655276,-1.06211 -0.8011721,-1.1998 -0.2668388,-0.0688 -0.4228772,-0.33109 -0.3546923,-0.59989 0.055728,-0.21636 0.2399582,-0.36059 0.4500856,-0.37043 z m -0.3904239,1.52433 c 0.048516,0 0.098344,0.003 0.1484988,0.0164 0.2668388,0.0688 0.423205,0.33109 0.3543645,0.59989 l 0.5638363,0.14424 -0.360593,1.40631 c 0.075397,-0.53433 -0.2655275,-1.05883 -0.8014998,-1.19651 -0.2668388,-0.0688 -0.4225494,-0.33109 -0.3543646,-0.5999 0.0554,-0.21635 0.2396304,-0.36059 0.4497578,-0.37042 z m -0.390096,1.52432 c 0.048516,0 0.098343,0.003 0.1484987,0.0164 0.266511,0.0688 0.4225494,0.33109 0.3543646,0.5999 l 0.5638363,0.14096 -0.3586261,1.4030307 c 0.070807,-0.53433 -0.2704448,-1.0522707 -0.8034668,-1.1899607 -0.2668388,-0.0688 -0.4228772,-0.33109 -0.3546923,-0.59989 0.055728,-0.21636 0.2399582,-0.36059 0.4500856,-0.37043 z m 7.7147229,1.28502 -0.4392678,1.2030707 1.2260163,-0.37042 z M 1.4844727,10.004678 c 0.048516,0 0.098344,0.003 0.1484988,0.0164 0.2668388,0.0688 0.4228772,0.331091 0.3543645,0.599891 l 0.5641641,0.14096 -0.360593,1.40959 c 0.06884,-0.53105 -0.2720837,-1.049 -0.8041223,-1.18668 l 0.00328,-0.01 c -0.2674944,-0.0688 -0.42353279,-0.33109 -0.355348,-0.59989 0.0554,-0.21636 0.2396305,-0.360601 0.4497578,-0.370431 z m 1.8668882,0.665451 7.1167941,1.81936 -0.144237,0.57039 -7.1167943,-1.81935 z m -2.2592789,0.86871 c 0.048516,0 0.098344,0.003 0.1481709,0.0164 0.2668388,0.0688 0.4228772,0.33109 0.3546924,0.59989 l 0.5638363,0.14096 -0.1209626,0.47205 -1.04637519,-0.26881 v 0.007 c -0.2625773,-0.0722 -0.41533758,-0.33113 -0.34780835,-0.59666 0.0557282,-0.21635 0.23995825,-0.36059 0.45008564,-0.37042 z" />
</svg>
