<?xml version="1.0" encoding="UTF-8" standalone="no"?>
<svg
   xmlns:dc="http://purl.org/dc/elements/1.1/"
   xmlns:cc="http://creativecommons.org/ns#"
   xmlns:rdf="http://www.w3.org/1999/02/22-rdf-syntax-ns#"
   xmlns:svg="http://www.w3.org/2000/svg"
   xmlns="http://www.w3.org/2000/svg"
   xmlns:sodipodi="http://sodipodi.sourceforge.net/DTD/sodipodi-0.dtd"
   xmlns:inkscape="http://www.inkscape.org/namespaces/inkscape"
   viewBox="0 0 16 16"
   version="1.1"
   id="svg6"
   sodipodi:docname="selector.svg"
   width="16"
   height="16"
   inkscape:version="0.92.5 (2060ec1f9f, 2020-04-08)">
  <metadata
     id="metadata12">
    <rdf:RDF>
      <cc:Work
         rdf:about="">
        <dc:format>image/svg+xml</dc:format>
        <dc:type
           rdf:resource="http://purl.org/dc/dcmitype/StillImage" />
        <dc:title></dc:title>
      </cc:Work>
    </rdf:RDF>
  </metadata>
  <defs
     id="defs10">
    <marker
       inkscape:stockid="Arrow2Mend"
       orient="auto"
       refY="0.0"
       refX="0.0"
       id="Arrow2Mend"
       style="overflow:visible;"
       inkscape:isstock="true">
      <path
         id="path871"
         style="fill-rule:evenodd;stroke-width:0.625;stroke-linejoin:round;stroke:#ffe171;stroke-opacity:1;fill:#ffe171;fill-opacity:1"
         d="M 8.7185878,4.0337352 L -2.2072895,0.016013256 L 8.7185884,-4.0017078 C 6.9730900,-1.6296469 6.9831476,1.6157441 8.7185878,4.0337352 z "
         transform="scale(0.6) rotate(180) translate(0,0)" />
    </marker>
    <marker
       inkscape:stockid="TriangleOutM"
       orient="auto"
       refY="0.0"
       refX="0.0"
       id="marker2280"
       style="overflow:visible"
       inkscape:isstock="true">
      <path
         id="path2278"
         d="M 5.77,0.0 L -2.88,5.0 L -2.88,-5.0 L 5.77,0.0 z "
         style="fill-rule:evenodd;stroke:#ffe171;stroke-width:1pt;stroke-opacity:1;fill:#ffe171;fill-opacity:1"
         transform="scale(0.4)" />
    </marker>
    <marker
       inkscape:stockid="Arrow1Lend"
       orient="auto"
       refY="0.0"
       refX="0.0"
       id="marker1246"
       style="overflow:visible;"
       inkscape:isstock="true">
      <path
         id="path1244"
         d="M 0.0,0.0 L 5.0,-5.0 L -12.5,0.0 L 5.0,5.0 L 0.0,0.0 z "
         style="fill-rule:evenodd;stroke:#000000;stroke-width:1pt;stroke-opacity:1;fill:#000000;fill-opacity:1"
         transform="scale(0.8) rotate(180) translate(12.5,0)" />
    </marker>
    <marker
       inkscape:stockid="Arrow1Lend"
       orient="auto"
       refY="0.0"
       refX="0.0"
       id="marker1128"
       style="overflow:visible;"
       inkscape:isstock="true">
      <path
         id="path1126"
         d="M 0.0,0.0 L 5.0,-5.0 L -12.5,0.0 L 5.0,5.0 L 0.0,0.0 z "
         style="fill-rule:evenodd;stroke:#000000;stroke-width:1pt;stroke-opacity:1;fill:#000000;fill-opacity:1"
         transform="scale(0.8) rotate(180) translate(12.5,0)" />
    </marker>
    <marker
       inkscape:stockid="Arrow1Lend"
       orient="auto"
       refY="0.0"
       refX="0.0"
       id="Arrow1Lend"
       style="overflow:visible;"
       inkscape:isstock="true">
      <path
         id="path847"
         d="M 0.0,0.0 L 5.0,-5.0 L -12.5,0.0 L 5.0,5.0 L 0.0,0.0 z "
         style="fill-rule:evenodd;stroke:#000000;stroke-width:1pt;stroke-opacity:1;fill:#000000;fill-opacity:1"
         transform="scale(0.8) rotate(180) translate(12.5,0)" />
    </marker>
  </defs>
  <sodipodi:namedview
     pagecolor="#ffffff"
     bordercolor="#666666"
     borderopacity="1"
     objecttolerance="10"
     gridtolerance="10"
     guidetolerance="10"
     inkscape:pageopacity="0"
     inkscape:pageshadow="2"
     inkscape:window-width="1920"
     inkscape:window-height="1030"
     id="namedview8"
     showgrid="false"
     inkscape:zoom="40.96"
     inkscape:cx="7.6679667"
     inkscape:cy="8.6132812"
     inkscape:window-x="0"
     inkscape:window-y="27"
     inkscape:window-maximized="1"
     inkscape:current-layer="svg6" />
  <g
     aria-label="?"
     style="font-style:normal;font-weight:normal;font-size:15px;line-height:125%;font-family:sans-serif;letter-spacing:0px;word-spacing:0px;fill:#000000;fill-opacity:1;stroke:none;stroke-width:1px;stroke-linecap:butt;stroke-linejoin:miter;stroke-opacity:1"
     id="text5016">
    <path
       d="m 7.6425311,2.5611775 q -1.2319999,0 -2.4079999,0.6346666 L 4.7491979,1.8518442 q 0.6346666,-0.336 1.4186666,-0.5413333 0.8026667,-0.2053334 1.6986666,-0.2053334 1.064,0 1.736,0.2986667 0.6906669,0.28 1.1013329,0.728 0.410667,0.448 0.56,1.0079999 0.168,0.5413333 0.168,1.0453333 0,0.6346667 -0.242666,1.1386667 -0.242667,0.4853333 -0.597334,0.9146666 -0.354666,0.4293333 -0.7839996,0.8213333 -0.4293333,0.392 -0.784,0.8213333 Q 8.6691978,8.291844 8.4265311,8.7958439 8.1838645,9.2811773 8.1838645,9.8971772 q 0,0.093333 0,0.2053338 0,0.112 0.018667,0.205333 H 6.7465312 q -0.074667,-0.3733334 -0.074667,-0.7840001 0,-0.5973333 0.2053333,-1.0826666 0.224,-0.4853333 0.56,-0.896 0.336,-0.4293333 0.7093333,-0.784 0.3733333,-0.3733333 0.7093333,-0.7466666 0.336,-0.3733333 0.5413333,-0.784 0.224,-0.4106666 0.224,-0.8959999 0,-0.784 -0.5039999,-1.2693333 -0.504,-0.504 -1.4746667,-0.504 z m 1.176,10.7706665 q 0,0.504 -0.336,0.877333 -0.336,0.373333 -0.9146666,0.373333 -0.5786667,0 -0.9146667,-0.373333 -0.3359999,-0.373333 -0.3359999,-0.877333 0,-0.504 0.3359999,-0.877334 0.336,-0.373333 0.9146667,-0.373333 0.5786666,0 0.9146666,0.373333 0.336,0.373334 0.336,0.877334 z"
       style="font-style:normal;font-variant:normal;font-weight:normal;font-stretch:normal;font-size:18.66666603px;font-family:Ubuntu;-inkscape-font-specification:Ubuntu;fill:#ffe171;fill-opacity:1"
       id="path5037" />
  </g>
</svg>
