<?xml version="1.0" encoding="UTF-8" standalone="no"?>
<svg
   xmlns:dc="http://purl.org/dc/elements/1.1/"
   xmlns:cc="http://creativecommons.org/ns#"
   xmlns:rdf="http://www.w3.org/1999/02/22-rdf-syntax-ns#"
   xmlns:svg="http://www.w3.org/2000/svg"
   xmlns="http://www.w3.org/2000/svg"
   xmlns:sodipodi="http://sodipodi.sourceforge.net/DTD/sodipodi-0.dtd"
   xmlns:inkscape="http://www.inkscape.org/namespaces/inkscape"
   viewBox="0 0 16 16"
   version="1.1"
   id="svg6"
   sodipodi:docname="tree-roots.svg"
   inkscape:version="0.92.5 (2060ec1f9f, 2020-04-08)"
   width="16"
   height="16">
  <metadata
     id="metadata12">
    <rdf:RDF>
      <cc:Work
         rdf:about="">
        <dc:format>image/svg+xml</dc:format>
        <dc:type
           rdf:resource="http://purl.org/dc/dcmitype/StillImage" />
        <dc:title></dc:title>
      </cc:Work>
    </rdf:RDF>
  </metadata>
  <defs
     id="defs10" />
  <sodipodi:namedview
     pagecolor="#ffffff"
     bordercolor="#666666"
     borderopacity="1"
     objecttolerance="10"
     gridtolerance="10"
     guidetolerance="10"
     inkscape:pageopacity="0"
     inkscape:pageshadow="2"
     inkscape:window-width="1920"
     inkscape:window-height="1030"
     id="namedview8"
     showgrid="false"
     inkscape:zoom="20.85965"
     inkscape:cx="19.768747"
     inkscape:cy="10.949824"
     inkscape:window-x="0"
     inkscape:window-y="27"
     inkscape:window-maximized="1"
     inkscape:current-layer="svg6"
     fit-margin-top="0"
     fit-margin-left="0"
     fit-margin-right="0.3"
     fit-margin-bottom="0" />
  <path
     style="fill:#ffe171;fill-opacity:1;stroke-width:0.03339381"
     inkscape:connector-curvature="0"
     id="path2"
     d="M 4.9072204,0.28754425 4.2326654,5.9351054 c 0,0 -1.4826851,0.5777129 -2.0293418,1.1253714 C 1.1313823,8.1324181 0,11.041019 0,11.041019 L 1.7201152,9.2511107 2.9035918,10.38984 2.2781257,8.6700584 2.5038679,8.4363018 c 0,0 1.7121006,-1.4793458 2.7038968,-1.3257343 1.2021771,0.1870053 2.6314322,2.5279114 2.6314322,2.5279114 L 7.2314296,12.340038 C 5.4248244,13.211617 3.6716494,14.183376 1.9087902,15.141779 L 4.5565854,14.400436 4.9573111,16 5.4582182,14.320291 c 0,0 1.2689648,-1.008493 2.0303437,-1.051905 0.6945912,-0.03673 1.9501985,0.751361 1.9501985,0.751361 L 8.1898319,15.372196 10.817925,14.296915 8.7374904,12.794194 C 9.7626804,11.047698 10.049867,9.5683519 9.689214,7.5613839 10.156727,7.1773551 10.968197,6.77329 11.689503,7.1105675 l -0.607767,1.0185112 1.559491,1.9835923 -0.514265,-1.7698719 0.343956,-0.7079488 c 0.874918,0.7981121 1.429255,2.0937919 1.476007,3.2325207 0.05009,1.165444 -1.616261,3.102285 -1.616261,3.102285 2.117168,-1.329074 2.611396,-2.875207 2.260761,-4.4547342 0.38069,0.040073 0.774737,-0.063448 1.212196,-0.140254 C 14.771752,9.0106753 14.474547,8.6533615 14.087179,8.1290787 13.830046,7.6081353 13.506126,7.0938706 13.145473,6.5862847 L 13.208922,6.0219293 12.19375,5.2572111 10.941482,5.5577553 10.08994,0.28754425 Z" />
</svg>
